<svg preserveAspectRatio="none" width="100%" height="100%" overflow="visible" style="display: block;" viewBox="0 0 20 20" fill="none" xmlns="http://www.w3.org/2000/svg">
<g id="analytics-sharp">
<path id="Vector" d="M17.5781 5C17.2988 5.00009 17.0234 5.0653 16.7736 5.19044C16.5239 5.31559 16.3068 5.49723 16.1396 5.72094C15.9723 5.94465 15.8595 6.20427 15.8101 6.47919C15.7608 6.75411 15.7761 7.03675 15.8551 7.30469L13.0672 10.0922C12.6995 9.96971 12.302 9.96971 11.9344 10.0922L9.86758 8.02539C9.93559 7.76001 9.94202 7.48258 9.88637 7.21433C9.83072 6.94608 9.71448 6.69411 9.54651 6.47768C9.37855 6.26124 9.16332 6.08608 8.91729 5.96558C8.67125 5.84508 8.40091 5.78244 8.12695 5.78244C7.85299 5.78244 7.58266 5.84508 7.33662 5.96558C7.09058 6.08608 6.87535 6.26124 6.70739 6.47768C6.53943 6.69411 6.42318 6.94608 6.36754 7.21433C6.31189 7.48258 6.31832 7.76001 6.38633 8.02539L2.92969 11.4797C2.54592 11.3661 2.13525 11.3836 1.76257 11.5295C1.38989 11.6754 1.07647 11.9414 0.871841 12.2854C0.667215 12.6293 0.583057 13.0317 0.632669 13.4288C0.682281 13.8259 0.862834 14.1952 1.14579 14.4782C1.42874 14.7613 1.79796 14.942 2.19508 14.9917C2.5922 15.0414 2.99457 14.9574 3.33859 14.7529C3.68262 14.5484 3.94867 14.235 4.0947 13.8624C4.24072 13.4898 4.2584 13.0791 4.14492 12.6953L7.55781 9.28281C7.92547 9.40537 8.32297 9.40537 8.69062 9.28281L10.7578 11.35C10.6898 11.6154 10.6834 11.8928 10.739 12.1611C10.7947 12.4293 10.9109 12.6813 11.0789 12.8977C11.2468 13.1141 11.4621 13.2893 11.7081 13.4098C11.9541 13.5303 12.2245 13.593 12.4984 13.593C12.7724 13.593 13.0427 13.5303 13.2888 13.4098C13.5348 13.2893 13.75 13.1141 13.918 12.8977C14.086 12.6813 14.2022 12.4293 14.2579 12.1611C14.3135 11.8928 14.3071 11.6154 14.2391 11.35L17.0703 8.52031C17.3175 8.59323 17.5774 8.61213 17.8326 8.57574C18.0877 8.53934 18.332 8.44849 18.5489 8.30935C18.7658 8.17022 18.9503 7.98605 19.0897 7.76935C19.2292 7.55265 19.3204 7.30849 19.3572 7.05342C19.394 6.79836 19.3755 6.53837 19.303 6.29108C19.2304 6.0438 19.1056 5.81501 18.9368 5.62025C18.7681 5.42548 18.5594 5.26929 18.325 5.16227C18.0905 5.05525 17.8358 4.99991 17.5781 5Z" fill="var(--fill-0, white)"/>
</g>
</svg>
