<svg preserveAspectRatio="none" width="100%" height="100%" overflow="visible" style="display: block;" viewBox="0 0 20 20" fill="none" xmlns="http://www.w3.org/2000/svg">
<g id="bulb">
<path id="Vector" d="M11.25 18.125H8.75C8.58424 18.125 8.42527 18.1908 8.30806 18.3081C8.19085 18.4253 8.125 18.5842 8.125 18.75C8.125 18.9158 8.19085 19.0747 8.30806 19.1919C8.42527 19.3092 8.58424 19.375 8.75 19.375H11.25C11.4158 19.375 11.5747 19.3092 11.6919 19.1919C11.8092 19.0747 11.875 18.9158 11.875 18.75C11.875 18.5842 11.8092 18.4253 11.6919 18.3081C11.5747 18.1908 11.4158 18.125 11.25 18.125ZM11.875 16.25H8.125C7.95924 16.25 7.80027 16.3158 7.68306 16.4331C7.56585 16.5503 7.5 16.7092 7.5 16.875C7.5 17.0408 7.56585 17.1997 7.68306 17.3169C7.80027 17.4342 7.95924 17.5 8.125 17.5H11.875C12.0408 17.5 12.1997 17.4342 12.3169 17.3169C12.4342 17.1997 12.5 17.0408 12.5 16.875C12.5 16.7092 12.4342 16.5503 12.3169 16.4331C12.1997 16.3158 12.0408 16.25 11.875 16.25ZM14.4305 2.44883C13.2559 1.27266 11.6824 0.625 10 0.625C9.17869 0.623042 8.36508 0.783367 7.60591 1.09677C6.84675 1.41016 6.15697 1.87046 5.57622 2.45122C4.99546 3.03197 4.53516 3.72175 4.22177 4.48091C3.90837 5.24008 3.74804 6.05369 3.75 6.875C3.75 8.69609 4.44805 10.3996 5.66406 11.5484L5.83438 11.7082C6.53789 12.366 7.5 13.2672 7.5 14.0625V15C7.5 15.1658 7.56585 15.3247 7.68306 15.4419C7.80027 15.5592 7.95924 15.625 8.125 15.625H9.0625C9.14538 15.625 9.22487 15.5921 9.28347 15.5335C9.34208 15.4749 9.375 15.3954 9.375 15.3125V10.7352C9.37502 10.672 9.35588 10.6102 9.3201 10.5581C9.28433 10.5061 9.2336 10.466 9.17461 10.4434C8.81371 10.2961 8.47085 10.108 8.15273 9.88281C8.08125 9.83716 8.0198 9.77744 7.97213 9.70728C7.92447 9.63712 7.89158 9.55799 7.87548 9.47471C7.85938 9.39143 7.86039 9.30575 7.87847 9.22288C7.89654 9.14001 7.93129 9.06168 7.98061 8.99267C8.02992 8.92366 8.09277 8.86541 8.16532 8.82147C8.23787 8.77752 8.31861 8.74881 8.40261 8.73707C8.48661 8.72533 8.57213 8.73081 8.65395 8.75318C8.73576 8.77555 8.81217 8.81434 8.87852 8.86719C9.16758 9.07188 9.72422 9.375 10 9.375C10.2758 9.375 10.8324 9.07109 11.1223 8.86719C11.2572 8.78234 11.4195 8.75227 11.5759 8.78313C11.7323 8.81399 11.871 8.90344 11.9636 9.03318C12.0562 9.16293 12.0958 9.32316 12.0741 9.4811C12.0525 9.63904 11.9714 9.78274 11.8473 9.88281C11.5291 10.1076 11.1862 10.2953 10.8254 10.4422C10.7664 10.4649 10.7157 10.5049 10.6799 10.557C10.6441 10.6091 10.625 10.6708 10.625 10.734V15.3125C10.625 15.3954 10.6579 15.4749 10.7165 15.5335C10.7751 15.5921 10.8546 15.625 10.9375 15.625H11.875C12.0408 15.625 12.1997 15.5592 12.3169 15.4419C12.4342 15.3247 12.5 15.1658 12.5 15V14.0625C12.5 13.2859 13.4516 12.3855 14.1465 11.7277L14.3383 11.5457C15.5891 10.3516 16.25 8.73477 16.25 6.875C16.2541 6.05361 16.0955 5.23954 15.7832 4.47983C15.4709 3.72012 15.0111 3.02983 14.4305 2.44883Z" fill="var(--fill-0, white)"/>
</g>
</svg>
