<svg preserveAspectRatio="none" width="100%" height="100%" overflow="visible" style="display: block;" viewBox="0 0 20 20" fill="none" xmlns="http://www.w3.org/2000/svg">
<g id="videocam-sharp">
<path id="Vector" d="M13.125 8.125V5C13.125 4.83424 13.0592 4.67527 12.9419 4.55806C12.8247 4.44085 12.6658 4.375 12.5 4.375H1.25C1.08424 4.375 0.925268 4.44085 0.808058 4.55806C0.690848 4.67527 0.625 4.83424 0.625 5V15C0.625 15.1658 0.690848 15.3247 0.808058 15.4419C0.925268 15.5592 1.08424 15.625 1.25 15.625H12.5C12.6658 15.625 12.8247 15.5592 12.9419 15.4419C13.0592 15.3247 13.125 15.1658 13.125 15V11.875L19.375 15.625V4.375L13.125 8.125Z" fill="var(--fill-0, black)"/>
</g>
</svg>
